<svg width="37" height="36" viewBox="0 0 37 36" fill="none" xmlns="http://www.w3.org/2000/svg">
<g id="Frame" clip-path="url(#clip0_1338_2054)">
<path id="Vector" d="M18.5 1C8.559 1 0.5 7.268 0.5 15C0.5 19.368 3.074 23.268 7.104 25.835C6.58 28.144 5.359 31.569 2.5 35C8.258 34.04 11.939 31.239 14.216 28.584C15.592 28.846 17.021 29 18.5 29C28.441 29 36.5 22.732 36.5 15C36.5 7.268 28.441 1 18.5 1Z" fill="#55ACEE"/>
<path id="Vector_2" d="M18.5 17C19.6046 17 20.5 16.1046 20.5 15C20.5 13.8954 19.6046 13 18.5 13C17.3954 13 16.5 13.8954 16.5 15C16.5 16.1046 17.3954 17 18.5 17Z" fill="#E1E8ED"/>
<path id="Vector_3" d="M26.5 17C27.6046 17 28.5 16.1046 28.5 15C28.5 13.8954 27.6046 13 26.5 13C25.3954 13 24.5 13.8954 24.5 15C24.5 16.1046 25.3954 17 26.5 17Z" fill="#E1E8ED"/>
<path id="Vector_4" d="M10.5 17C11.6046 17 12.5 16.1046 12.5 15C12.5 13.8954 11.6046 13 10.5 13C9.39543 13 8.5 13.8954 8.5 15C8.5 16.1046 9.39543 17 10.5 17Z" fill="#E1E8ED"/>
</g>
<defs>
<clipPath id="clip0_1338_2054">
<rect width="36" height="36" fill="white" transform="translate(0.5)"/>
</clipPath>
</defs>
</svg>
